<svg xmlns="http://www.w3.org/2000/svg" width="116.379" height="116.531" viewBox="0 0 116.379 116.531">
  <metadata><?xpacket begin="﻿" id="W5M0MpCehiHzreSzNTczkc9d"?>
<x:xmpmeta xmlns:x="adobe:ns:meta/" x:xmptk="Adobe XMP Core 5.6-c138 79.159824, 2016/09/14-01:09:01        ">
   <rdf:RDF xmlns:rdf="http://www.w3.org/1999/02/22-rdf-syntax-ns#">
      <rdf:Description rdf:about=""/>
   </rdf:RDF>
</x:xmpmeta>
                                                                                                    
                                                                                                    
                                                                                                    
                                                                                                    
                                                                                                    
                                                                                                    
                                                                                                    
                                                                                                    
                                                                                                    
                                                                                                    
                                                                                                    
                                                                                                    
                                                                                                    
                                                                                                    
                                                                                                    
                                                                                                    
                                                                                                    
                                                                                                    
                                                                                                    
                                                                                                    
                           
<?xpacket end="w"?></metadata>
<defs>
    <style>
      .cls-1 {
        fill: #d7be47;
        fill-rule: evenodd;
      }
    </style>
  </defs>
  <path id="Visual_Inspiration_and_Great_Business_Opportunities_-" data-name="Visual Inspiration and Great Business Opportunities  -" class="cls-1" d="M1000.76,204.766l3.44,6.043,0.62-.742-2.46-4.233c-0.13-.212-0.3-0.469-0.52-0.77l0.01-.014,0.84,0.389,4.58,1.741,0.63-.748-6.52-2.4Zm-3.563,3.726,4.533,4.7,0.66-.635-4.534-4.7Zm-3.293,2.717a2.112,2.112,0,0,0-.859,1.369,1.76,1.76,0,0,0,.4,1.384,1.584,1.584,0,0,0,.718.527,1.678,1.678,0,0,0,.813.084q0.4-.061.838-0.167c0.291-.071.558-0.143,0.8-0.214a1.618,1.618,0,0,1,.7-0.058,0.819,0.819,0,0,1,.539.3,0.8,0.8,0,0,1,.159.731,1.345,1.345,0,0,1-.5.725,2.073,2.073,0,0,1-.7.36,2.129,2.129,0,0,1-.783.094l0.143,0.845a2.539,2.539,0,0,0,1.839-.619,2.326,2.326,0,0,0,.883-1.346,1.622,1.622,0,0,0-.348-1.405,1.474,1.474,0,0,0-.854-0.548,2.255,2.255,0,0,0-1,.007q-0.5.115-.986,0.256a2.881,2.881,0,0,1-.915.122,0.872,0.872,0,0,1-.678-0.328,0.831,0.831,0,0,1-.179-0.728,1.291,1.291,0,0,1,.491-0.719,2.149,2.149,0,0,1,.818-0.4,2.613,2.613,0,0,1,.907-0.081l-0.029-.865a2.95,2.95,0,0,0-2.213.669h0Zm-3.588,3.463a2.625,2.625,0,0,0-1.943.4,2.582,2.582,0,0,0-1.238,1.528,2.309,2.309,0,0,0,.309,1.868l2.185,3.608,0.783-.474-2.175-3.593a1.544,1.544,0,0,1-.231-1.238,1.674,1.674,0,0,1,.811-0.983,1.692,1.692,0,0,1,1.25-.266,1.529,1.529,0,0,1,.99.769l2.18,3.6,0.784-.474-2.185-3.608A2.294,2.294,0,0,0,990.316,214.672Zm-6.437,2.989,0.144,1.984-2.258.979-1.349-1.462-0.866.375L984.3,224.6l0.891-.386-0.45-6.923Zm0.375,4.959q0.035,0.357.143,0.956l-0.017.008-0.61-.754-1.482-1.606,1.816-.788ZM974.066,221.2l0.226,0.763,2.812-.831,1.626,5.5,0.878-.26-1.851-6.263Zm-5.656,1.021,0.911,6.467,0.906-.127-0.91-6.468Zm-3.5.366,0.124,4.235q0.01,0.371.083,0.951h-0.019l-0.564-.936-3.036-4.15-0.9.026,0.191,6.528,0.906-.026-0.124-4.235q-0.01-.371-0.083-0.951H961.5l0.564,0.937,3.037,4.15,0.906-.026-0.191-6.529Zm-8.562-.318a2.112,2.112,0,0,0-1.573.37,1.764,1.764,0,0,0-.69,1.263,1.589,1.589,0,0,0,.141.88,1.682,1.682,0,0,0,.52.631q0.329,0.238.714,0.469c0.257,0.154.5,0.291,0.72,0.41a1.609,1.609,0,0,1,.538.452,0.821,0.821,0,0,1,.171.594,0.807,0.807,0,0,1-.4.633,1.345,1.345,0,0,1-.864.165,2.078,2.078,0,0,1-.752-0.236,2.144,2.144,0,0,1-.623-0.484l-0.492.7a2.54,2.54,0,0,0,1.743.852,2.328,2.328,0,0,0,1.575-.338,1.622,1.622,0,0,0,.739-1.244,1.475,1.475,0,0,0-.222-0.99,2.278,2.278,0,0,0-.718-0.7q-0.437-.269-0.882-0.511a2.856,2.856,0,0,1-.737-0.556,0.869,0.869,0,0,1-.251-0.71,0.828,0.828,0,0,1,.383-0.643,1.283,1.283,0,0,1,.855-0.167,2.166,2.166,0,0,1,.862.29,2.6,2.6,0,0,1,.7.58l0.588-.636a2.952,2.952,0,0,0-2.046-1.078h0Zm-5.124-.673-0.535,2.354-1.444-.328a1.99,1.99,0,0,0-1.561.233,2.027,2.027,0,0,0-.892,1.334,1.938,1.938,0,0,0,1.541,2.447l2.336,0.531,1.448-6.368Zm-1.272,5.592-1.308-.3a1.249,1.249,0,0,1-.823-0.529,1.225,1.225,0,0,1-.127-0.968,1.264,1.264,0,0,1,.541-0.835,1.252,1.252,0,0,1,.978-0.129l1.3,0.3Zm-4.979-7.306-2.054,6.2,0.869,0.288,2.054-6.2Zm-3.3-1.24-1.055,2.375-1.277-.567-0.2-2.935-0.946-.421,0.238,2.88a2.2,2.2,0,0,0,.049.345l-0.008.017a1.587,1.587,0,0,0-1.045.269,2.033,2.033,0,0,0-.749.9,1.949,1.949,0,0,0-.174,1.076,1.671,1.671,0,0,0,.426.909,3.117,3.117,0,0,0,1.036.652l1.893,0.842,2.653-5.968Zm-2.329,5.241-0.989-.44a2.063,2.063,0,0,1-.674-0.42,1.008,1.008,0,0,1-.141-1.187,1.216,1.216,0,0,1,.643-0.671,1.124,1.124,0,0,1,.911.046l1.2,0.533Zm-3.055-7.845-1.54,1.259-2.1-1.283,0.419-1.945-0.8-.492-1.409,6.793,0.829,0.507,5.4-4.352Zm-3.84,3.16q-0.275.234-.7,0.667l-0.016-.01,0.267-.932,0.46-2.136,1.689,1.032Zm-3.165-7.934-3.553,4.5-1.765-1.393-0.493.625,4.242,3.346,0.492-.624-1.764-1.393,3.553-4.5ZM925.5,207.91l-4.53,4.7,0.66,0.635,4.53-4.7Zm-2.9-1.693a3.412,3.412,0,0,0-3.043-3.708,3.367,3.367,0,0,0-2.488.81,3.354,3.354,0,1,0,4.254,5.185A3.367,3.367,0,0,0,922.6,206.217Zm-3.687,2.157a2.433,2.433,0,0,1-2.188-2.667,2.479,2.479,0,0,1,.942-1.659,2.61,2.61,0,0,1,1.857-.638,2.38,2.38,0,0,1,2.189,2.667,2.6,2.6,0,0,1-.989,1.7A2.476,2.476,0,0,1,918.91,208.374Zm-0.956-9.787-3.656,2.141q-0.319.186-.794,0.529l-0.01-.016,0.552-.944,2.184-4.656-0.453-.774-5.637,3.3,0.458,0.782,3.657-2.141q0.319-.186.794-0.529l0.009,0.016-0.551.945-2.184,4.655,0.458,0.782,5.636-3.3Zm-4.518-8.963-1.99-.007-0.805-2.325,1.56-1.235-0.309-.892-5.406,4.348,0.318,0.918,6.937,0.076Zm-4.974,0c-0.24,0-.561.028-0.965,0.07l-0.006-.018,0.8-.55L910,187.767l0.648,1.871Zm2.785-7.174-4.16.8c-0.243.047-.551,0.125-0.926,0.235l0-.018,0.834-.707L910.6,179.1l-0.17-.881-6.413,1.237,0.172,0.89,4.16-.8q0.363-.07.925-0.236l0,0.019-0.833.707-3.608,3.664,0.171,0.89,6.413-1.237Zm-1.2-9a3.307,3.307,0,0,0-.963-2.37,3.2,3.2,0,0,0-2.439-.8,3.163,3.163,0,0,0-2.354.991,3.32,3.32,0,0,0-.77,2.437l0.086,2.172,6.525-.256Zm-5.682,1.482-0.046-1.192a2.25,2.25,0,0,1,2.363-2.519,2.465,2.465,0,0,1,1.861.58,2.415,2.415,0,0,1,.712,1.744l0.047,1.193Zm5.205-10.866a3.058,3.058,0,0,0,1.336-2.076,2.979,2.979,0,0,0-.019-1.149,2.458,2.458,0,0,0-.418-0.965l0-.019,0.272,0.057,0.4,0.071,0.139-.793-3.235-.567-0.327,1.868,0.783,0.137,0.183-1.039,0.929,0.163a2.489,2.489,0,0,1,.482,1.963,2.256,2.256,0,0,1-1.006,1.561,2.57,2.57,0,0,1-1.932.357,2.534,2.534,0,0,1-1.651-.971,2.315,2.315,0,0,1-.4-1.879,2.99,2.99,0,0,1,.351-0.957,2.7,2.7,0,0,1,.6-0.755l-0.585-.572a3.562,3.562,0,0,0-1.195,2.2,3.2,3.2,0,0,0,.546,2.51,3.29,3.29,0,0,0,2.2,1.352A3.333,3.333,0,0,0,909.572,164.06Zm2.617-7.965-2.472-.8,0.432-1.328,2.9-.507,0.321-.986-2.84.536a2.205,2.205,0,0,0-.339.085l-0.017-.006a1.585,1.585,0,0,0-.376-1.012,2.021,2.021,0,0,0-.971-0.651,1.94,1.94,0,0,0-1.088-.062,1.675,1.675,0,0,0-.86.518,3.113,3.113,0,0,0-.541,1.1l-0.641,1.971,6.211,2.019Zm-5.454-1.773,0.334-1.03a2.06,2.06,0,0,1,.349-0.713,1,1,0,0,1,1.165-.263,1.208,1.208,0,0,1,.734.569,1.123,1.123,0,0,1,.05.911l-0.407,1.249Zm9.086-7.248-0.72-.337-1.29,2.757-1.9-.89,0.992-2.12-0.721-.337-0.992,2.12-1.852-.866,1.223-2.614-0.72-.338-1.611,3.444,5.916,2.768Zm1.143-2.052-1.239-1.556,1.312-2.082,1.939,0.445,0.5-.8-6.773-1.5-0.518.822,4.278,5.462Zm-3.108-3.882c-0.153-.185-0.373-0.421-0.657-0.71l0.01-.015,0.928,0.279,2.13,0.489-1.055,1.675Zm7.977-3.057-4.453-3.614,1.416-1.746-0.618-.5-3.4,4.195,0.618,0.5,1.416-1.746,4.454,3.615Zm6.607-6.651a2.32,2.32,0,0,0,.836-1.345,1.663,1.663,0,0,0-.43-1.437,1.766,1.766,0,0,0-.864-0.576,1.384,1.384,0,0,0-.984.07l-0.012-.015a1.441,1.441,0,0,0,.09-0.816,1.62,1.62,0,0,0-.379-0.782,1.516,1.516,0,0,0-1.188-.594,2.053,2.053,0,0,0-1.335.55l-1.743,1.478,4.224,4.981Zm-4.8-3.453,1.037-.879a0.9,0.9,0,0,1,1.364.105,0.992,0.992,0,0,1,.259.714,0.919,0.919,0,0,1-.353.664l-1.044.885Zm1.753,2.068,1.122-.952a1.1,1.1,0,0,1,.819-0.293,1.087,1.087,0,0,1,.753.416,1.113,1.113,0,0,1,.3.815,1.1,1.1,0,0,1-.427.763l-1.122.951Zm6.673-2.1a2.628,2.628,0,0,0,1.934-.439,2.582,2.582,0,0,0,1.206-1.554,2.316,2.316,0,0,0-.348-1.861l-2.26-3.561-0.774.49,2.25,3.546a1.547,1.547,0,0,1,.257,1.234,1.934,1.934,0,0,1-2.034,1.291,1.524,1.524,0,0,1-1.006-.747l-2.255-3.554-0.774.49,2.26,3.562A2.3,2.3,0,0,0,932.07,127.944Zm7.836-3.67a2.115,2.115,0,0,0,1.158-1.127,1.766,1.766,0,0,0-.058-1.438,1.6,1.6,0,0,0-.574-0.682,1.677,1.677,0,0,0-.771-0.273c-0.269-.024-0.554-0.036-0.853-0.036s-0.576.007-.828,0.019a1.612,1.612,0,0,1-.7-0.109,0.822,0.822,0,0,1-.452-0.422,0.807,0.807,0,0,1,.018-0.749,1.352,1.352,0,0,1,.655-0.587,2.1,2.1,0,0,1,.767-0.184,2.154,2.154,0,0,1,.784.094l0.06-.855a2.54,2.54,0,0,0-1.933.167,2.328,2.328,0,0,0-1.176,1.1,1.623,1.623,0,0,0,.006,1.447,1.475,1.475,0,0,0,.7.735,2.265,2.265,0,0,0,.974.229q0.513,0,1.019-.016a2.854,2.854,0,0,1,.918.1,0.872,0.872,0,0,1,.581.479,0.827,0.827,0,0,1,0,.749,1.278,1.278,0,0,1-.646.583,2.164,2.164,0,0,1-.889.195,2.6,2.6,0,0,1-.9-0.136l-0.176.848a2.954,2.954,0,0,0,2.309-.128h0Zm4.745-2.054-2.211-6.145-0.861.31,2.211,6.145Zm3.354-1.073-0.986-4.121c-0.058-.24-0.15-0.544-0.276-0.914l0.018,0,0.743,0.8,3.82,3.442,0.873-.209-1.52-6.351L949.8,114l0.986,4.12q0.086,0.36.275,0.914l-0.018,0-0.743-.8-3.82-3.442-0.882.211,1.52,6.352Zm10.717-1.771-0.078-.792-3.029.3-0.207-2.09,2.329-.231-0.079-.792-2.329.232-0.2-2.035,2.872-.285-0.079-.792-3.783.376,0.646,6.5Zm3.8,0.086a2.116,2.116,0,0,0,1.535-.505,1.763,1.763,0,0,0,.579-1.317,1.589,1.589,0,0,0-.216-0.865,1.679,1.679,0,0,0-.573-0.584c-0.232-.139-0.482-0.275-0.751-0.406s-0.52-.247-0.753-0.347a1.6,1.6,0,0,1-.575-0.4,0.816,0.816,0,0,1-.221-0.578,0.8,0.8,0,0,1,.344-0.664,1.346,1.346,0,0,1,.847-0.24,2.09,2.09,0,0,1,.769.171,2.158,2.158,0,0,1,.663.428l0.43-.741a2.542,2.542,0,0,0-1.81-.7,2.327,2.327,0,0,0-1.54.473,1.615,1.615,0,0,0-.629,1.3,1.475,1.475,0,0,0,.306.968,2.281,2.281,0,0,0,.776.634q0.457,0.23.922,0.432a2.86,2.86,0,0,1,.782.491,0.868,0.868,0,0,1,.312.685,0.827,0.827,0,0,1-.327.674,1.282,1.282,0,0,1-.837.24,2.15,2.15,0,0,1-.884-0.215,2.589,2.589,0,0,1-.75-0.517l-0.53.684a2.953,2.953,0,0,0,2.131.9h0Zm5.889,0.443a2.116,2.116,0,0,0,1.583-.326,1.766,1.766,0,0,0,.725-1.243,1.584,1.584,0,0,0-.116-0.883,1.658,1.658,0,0,0-.5-0.645c-0.214-.166-0.448-0.329-0.7-0.49s-0.488-.3-0.708-0.43a1.6,1.6,0,0,1-.526-0.467,0.816,0.816,0,0,1-.153-0.6,0.8,0.8,0,0,1,.418-0.621,1.351,1.351,0,0,1,.868-0.141,2.072,2.072,0,0,1,.745.258,2.139,2.139,0,0,1,.61.5l0.512-.688a2.539,2.539,0,0,0-1.719-.9,2.321,2.321,0,0,0-1.583.293,1.616,1.616,0,0,0-.774,1.222,1.471,1.471,0,0,0,.194,1,2.255,2.255,0,0,0,.7.718q0.429,0.282.867,0.536a2.846,2.846,0,0,1,.721.576,0.876,0.876,0,0,1,.232.717,0.835,0.835,0,0,1-.4.633,1.29,1.29,0,0,1-.859.142,2.165,2.165,0,0,1-.854-0.314,2.62,2.62,0,0,1-.685-0.6l-0.605.619a2.949,2.949,0,0,0,2.014,1.136h0Zm8.137,0.674a3.411,3.411,0,0,0,4.534,1.566,3.368,3.368,0,0,0,1.7-1.993,3.353,3.353,0,1,0-6.339-2.19A3.362,3.362,0,0,0,976.551,120.579Zm2.011-3.768a2.435,2.435,0,0,1,3.262,1.126,2.479,2.479,0,0,1,.065,1.907,2.606,2.606,0,0,1-1.248,1.517,2.382,2.382,0,0,1-3.261-1.127,2.6,2.6,0,0,1-.046-1.964A2.475,2.475,0,0,1,978.562,116.811Zm5.93,7.85,1.109-2.145,1.315,0.679a1.99,1.99,0,0,0,1.57.166,2.025,2.025,0,0,0,1.2-1.068,1.99,1.99,0,0,0,.176-1.581,2.011,2.011,0,0,0-1.054-1.174l-2.128-1.1-3,5.8Zm2.633-5.1,1.192,0.616a1.254,1.254,0,0,1,.665.718,1.226,1.226,0,0,1-.121.969,1.181,1.181,0,0,1-1.712.552l-1.183-.611Zm3,8.317,1.368-1.989,1.219,0.839a1.994,1.994,0,0,0,1.537.362,2.028,2.028,0,0,0,1.322-.91,1.987,1.987,0,0,0,.373-1.546,2.012,2.012,0,0,0-.9-1.3l-1.974-1.358-3.7,5.38Zm3.25-4.725,1.106,0.761a1.253,1.253,0,0,1,.569.8,1.228,1.228,0,0,1-.241.946,1.182,1.182,0,0,1-1.768.333l-1.1-.755Zm2.27,7.712a3.411,3.411,0,0,0,3.514,3.264A3.369,3.369,0,0,0,1001.51,133a3.208,3.208,0,0,0,.92-2.387,3.354,3.354,0,0,0-5.831-2.177A3.359,3.359,0,0,0,995.642,130.869ZM999,128.234a2.43,2.43,0,0,1,2.526,2.348,2.486,2.486,0,0,1-.71,1.771,2.608,2.608,0,0,1-1.752.883,2.382,2.382,0,0,1-2.529-2.348,2.609,2.609,0,0,1,.751-1.815A2.48,2.48,0,0,1,999,128.234Zm2.256,9.584,2.03-1.623,0.87,1.091-1.17,2.7,0.65,0.81,1.11-2.667a2.605,2.605,0,0,0,.12-0.329l0.01-.012a1.587,1.587,0,0,0,1.06.243,2.017,2.017,0,0,0,1.07-.453,1.893,1.893,0,0,0,.65-0.875,1.637,1.637,0,0,0,.04-1,3,3,0,0,0-.62-1.056l-1.29-1.619-5.1,4.078Zm4.48-3.581,0.68,0.845a2.165,2.165,0,0,1,.4.683,1,1,0,0,1-.42,1.119,1.225,1.225,0,0,1-.88.3,1.146,1.146,0,0,1-.79-0.46l-0.82-1.026Zm0.22,10.21,4.89-2.987,1.17,1.919,0.68-.414-2.81-4.612-0.68.414,1.17,1.919-4.9,2.987Zm2.79,3.963a2.652,2.652,0,0,0,.14,1.979,2.6,2.6,0,0,0,1.35,1.427,2.328,2.328,0,0,0,1.9-.061l3.86-1.692-0.37-.839-3.84,1.685a1.549,1.549,0,0,1-1.26.066,1.653,1.653,0,0,1-.87-0.933,1.692,1.692,0,0,1-.1-1.274,1.526,1.526,0,0,1,.89-0.881l3.86-1.688-0.37-.839-3.86,1.692A2.3,2.3,0,0,0,1008.75,148.41Zm2.35,7.556,4.1-1.1c0.23-.064.54-0.164,0.9-0.3l0.01,0.018-0.79.766-3.33,3.915,0.23,0.866,6.31-1.7-0.23-.875-4.1,1.1c-0.23.064-.54,0.164-0.9,0.3l-0.01-.018,0.78-.766,3.34-3.915-0.24-.876-6.3,1.7Zm1.69,7.645,6.45-.99-0.14-.905-6.45.99Zm0.47,5.015,5.73-.309,0.12,2.245,0.79-.043-0.29-5.4-0.79.043,0.12,2.245-5.73.309Zm-0.02,5.05,6.52,0.287,0.05-.914-6.53-.288Zm-0.72,6.526,0.79,0.109,0.42-3.015,2.08,0.286-0.32,2.319,0.79,0.109,0.32-2.319,2.02,0.279-0.39,2.859,0.78,0.109,0.52-3.766-6.47-.892Zm-0.97,3.677a2.127,2.127,0,0,0,.14,1.611,1.755,1.755,0,0,0,1.14.869,1.615,1.615,0,0,0,.9-0.009,1.717,1.717,0,0,0,.7-0.42q0.285-.291.57-0.637t0.51-.651a1.684,1.684,0,0,1,.52-0.466,0.835,0.835,0,0,1,.62-0.08,0.774,0.774,0,0,1,.56.49,1.367,1.367,0,0,1,.04.878,1.981,1.981,0,0,1-.35.709,1.94,1.94,0,0,1-.57.545l0.63,0.591a2.583,2.583,0,0,0,1.1-1.6,2.3,2.3,0,0,0-.11-1.608,1.608,1.608,0,0,0-1.12-.915,1.474,1.474,0,0,0-1.01.073,2.246,2.246,0,0,0-.79.607c-0.23.261-.44,0.527-0.64,0.8a2.762,2.762,0,0,1-.66.647,0.877,0.877,0,0,1-.74.143,0.837,0.837,0,0,1-.58-0.474,1.335,1.335,0,0,1-.04-0.87,2.293,2.293,0,0,1,.42-0.81,2.559,2.559,0,0,1,.68-0.609l-0.55-.675a2.991,2.991,0,0,0-1.37,1.863h0Zm-2.22,13.5,0.71,0.367,1.25-2.4-0.71-.367Z" transform="translate(-903.531 -112.719)"/>
</svg>