<svg xmlns="http://www.w3.org/2000/svg" width="50" height="50" viewBox="0 0 50 50">
  <metadata><?xpacket begin="﻿" id="W5M0MpCehiHzreSzNTczkc9d"?>
<x:xmpmeta xmlns:x="adobe:ns:meta/" x:xmptk="Adobe XMP Core 5.6-c138 79.159824, 2016/09/14-01:09:01        ">
   <rdf:RDF xmlns:rdf="http://www.w3.org/1999/02/22-rdf-syntax-ns#">
      <rdf:Description rdf:about=""/>
   </rdf:RDF>
</x:xmpmeta>
                                                                                                    
                                                                                                    
                                                                                                    
                                                                                                    
                                                                                                    
                                                                                                    
                                                                                                    
                                                                                                    
                                                                                                    
                                                                                                    
                                                                                                    
                                                                                                    
                                                                                                    
                                                                                                    
                                                                                                    
                                                                                                    
                                                                                                    
                                                                                                    
                                                                                                    
                                                                                                    
                           
<?xpacket end="w"?></metadata>
<defs>
    <style>
      .cls-1 {
        fill-rule: evenodd;
      }
    </style>
  </defs>
  <path id="bg" class="cls-1" d="M961,501a25,25,0,1,1-25,25A25,25,0,0,1,961,501Zm0,16.621c2.4,0,2.69.009,3.64,0.053a4.994,4.994,0,0,1,1.672.309,2.979,2.979,0,0,1,1.71,1.705,4.961,4.961,0,0,1,.31,1.667c0.043,0.947.052,1.231,0.052,3.629s-0.009,2.683-.052,3.63a4.969,4.969,0,0,1-.31,1.668,2.981,2.981,0,0,1-1.71,1.7,4.994,4.994,0,0,1-1.672.309c-0.95.044-1.235,0.053-3.64,0.053s-2.69-.009-3.64-0.053a4.994,4.994,0,0,1-1.672-.309,2.981,2.981,0,0,1-1.71-1.7,4.969,4.969,0,0,1-.31-1.668c-0.043-.947-0.052-1.231-0.052-3.63s0.009-2.682.052-3.629a4.961,4.961,0,0,1,.31-1.667,2.979,2.979,0,0,1,1.71-1.705,4.994,4.994,0,0,1,1.672-.309c0.95-.044,1.235-0.053,3.64-0.053M961,516c-2.446,0-2.753.011-3.714,0.055a6.61,6.61,0,0,0-2.186.417,4.595,4.595,0,0,0-2.634,2.626,6.582,6.582,0,0,0-.419,2.181c-0.044.958-.054,1.263-0.054,3.7s0.01,2.746.054,3.7a6.575,6.575,0,0,0,.419,2.18,4.595,4.595,0,0,0,2.634,2.626,6.633,6.633,0,0,0,2.186.418c0.961,0.044,1.268.054,3.714,0.054s2.753-.01,3.713-0.054a6.639,6.639,0,0,0,2.187-.418,4.6,4.6,0,0,0,2.634-2.626,6.575,6.575,0,0,0,.419-2.18c0.044-.958.054-1.264,0.054-3.7s-0.01-2.744-.054-3.7a6.582,6.582,0,0,0-.419-2.181,4.6,4.6,0,0,0-2.634-2.626,6.616,6.616,0,0,0-2.187-.417c-0.96-.044-1.267-0.055-3.713-0.055m0,4.37a4.612,4.612,0,1,0,4.625,4.611A4.617,4.617,0,0,0,961,520.373m0,7.6a2.994,2.994,0,1,1,3-2.994,3,3,0,0,1-3,2.994m5.889-7.787a1.081,1.081,0,1,1-1.081-1.078,1.079,1.079,0,0,1,1.081,1.078" transform="translate(-936 -501)"/>
</svg>
