<svg xmlns="http://www.w3.org/2000/svg" width="50" height="50" viewBox="0 0 50 50">
  <metadata><?xpacket begin="﻿" id="W5M0MpCehiHzreSzNTczkc9d"?>
<x:xmpmeta xmlns:x="adobe:ns:meta/" x:xmptk="Adobe XMP Core 5.6-c138 79.159824, 2016/09/14-01:09:01        ">
   <rdf:RDF xmlns:rdf="http://www.w3.org/1999/02/22-rdf-syntax-ns#">
      <rdf:Description rdf:about=""/>
   </rdf:RDF>
</x:xmpmeta>
                                                                                                    
                                                                                                    
                                                                                                    
                                                                                                    
                                                                                                    
                                                                                                    
                                                                                                    
                                                                                                    
                                                                                                    
                                                                                                    
                                                                                                    
                                                                                                    
                                                                                                    
                                                                                                    
                                                                                                    
                                                                                                    
                                                                                                    
                                                                                                    
                                                                                                    
                                                                                                    
                           
<?xpacket end="w"?></metadata>
<defs>
    <style>
      .cls-1 {
        fill-rule: evenodd;
      }
    </style>
  </defs>
  <path id="bg" class="cls-1" d="M1041,501a25,25,0,1,1-25,25A25,25,0,0,1,1041,501Zm-1.19,29.836h1.07a0.855,0.855,0,0,0,.49-0.228,0.822,0.822,0,0,0,.15-0.5s-0.02-1.53.65-1.757,1.51,1.481,2.4,2.134a1.634,1.634,0,0,0,1.2.387l2.4-.035s1.26-.083.66-1.131a8.312,8.312,0,0,0-1.78-2.193c-1.51-1.484-1.31-1.244.51-3.809,1.1-1.564,1.54-2.517,1.4-2.927a1,1,0,0,0-.94-0.285l-2.7.017a0.587,0.587,0,0,0-.35.065,0.761,0.761,0,0,0-.24.308,17.332,17.332,0,0,1-1,2.24c-1.2,2.17-1.69,2.284-1.88,2.148-0.46-.314-0.35-1.261-0.35-1.933,0-2.1.3-2.983-.58-3.209a4.451,4.451,0,0,0-1.26-.134,5.6,5.6,0,0,0-2.25.244c-0.3.16-.54,0.517-0.4,0.537a1.183,1.183,0,0,1,.8.426,2.89,2.89,0,0,1,.27,1.3s0.16,2.475-.37,2.784c-0.37.209-.87-0.221-1.94-2.19a19.349,19.349,0,0,1-.97-2.122,0.866,0.866,0,0,0-.22-0.32,1.063,1.063,0,0,0-.41-0.179l-2.57.019a0.847,0.847,0,0,0-.53.188,0.61,0.61,0,0,0-.01.486s2.01,5,4.29,7.513a5.985,5.985,0,0,0,4.46,2.158h0Z" transform="translate(-1016 -501)"/>
</svg>
