<svg 
 xmlns="http://www.w3.org/2000/svg"
 xmlns:xlink="http://www.w3.org/1999/xlink"
 width="43px" height="27px">
<path fill-rule="evenodd"  fill="rgb(0, 0, 0)"
 d="M42.242,14.069 C41.890,14.578 33.496,26.499 21.474,26.499 C9.456,26.499 1.058,14.578 0.706,14.069 C0.469,13.727 0.469,13.272 0.706,12.929 C1.058,12.421 9.456,0.499 21.474,0.499 C33.496,0.499 41.890,12.421 42.242,12.929 C42.480,13.272 42.480,13.727 42.242,14.069 ZM21.474,2.499 C11.918,2.499 4.572,11.166 2.770,13.498 C4.577,15.831 11.935,24.499 21.474,24.499 C31.034,24.499 38.377,15.832 40.177,13.500 C38.374,11.169 31.016,2.499 21.474,2.499 ZM21.474,21.016 C17.196,21.016 13.716,17.494 13.716,13.165 C13.716,8.835 17.196,5.314 21.474,5.314 C25.753,5.314 29.233,8.835 29.233,13.165 C29.233,17.494 25.753,21.016 21.474,21.016 ZM21.474,7.314 C18.296,7.314 15.710,9.938 15.710,13.165 C15.710,16.391 18.296,19.016 21.474,19.016 C24.652,19.016 27.238,16.391 27.238,13.165 C27.238,9.938 24.652,7.314 21.474,7.314 Z"/>
</svg>